<?xml version="1.0" encoding="utf-8"?>
<!-- Generator: Adobe Illustrator 16.0.0, SVG Export Plug-In . SVG Version: 6.00 Build 0)  -->
<!DOCTYPE svg PUBLIC "-//W3C//DTD SVG 1.1//EN" "http://www.w3.org/Graphics/SVG/1.1/DTD/svg11.dtd">
<svg version="1.1" id="Layer_1" xmlns="http://www.w3.org/2000/svg" xmlns:xlink="http://www.w3.org/1999/xlink" x="0px" y="0px"
	 width="1030px" height="1080px" viewBox="0 0 1030 1080" enable-background="new 0 0 1030 1080" xml:space="preserve">
<g>
	<path fill="#FB6D29" d="M666.1,417c-15-17.2-28.4-34.3-43.6-49.4c-29.7-29.5-65.7-48.1-106.3-58.1c-40.6-10-81.8-10.4-122.6-2.6
		c-48.3,9.1-96.2,20-140.2,43.3c-0.5,0.2-1.2,0.1-3.3,0.2c8.6-14.5,16.2-28.5,24.8-41.9c51.4-81,112.5-154.3,178.2-223.9
		c8.4-8.9,16.6-17.9,24.9-26.8c3.3-3.6,6.6-7.2,10.4-10.3c13-10.6,21.5-10.1,33.6,1.6c36,34.8,68.1,73.5,95.5,115.5
		c28.8,44.1,55.4,89.8,83,134.7c1.1,1.7,2.4,3.2,4.7,6.5c16.4-23.9,28.6-48.3,35.4-75.4C738.3,301.9,707.9,362.1,666.1,417z"/>
	<path fill="#FB6D29" d="M762.7,199.4c5.6,33.5,8.6,67.1,4.5,101c-11.1,89.4-53.7,163-115.8,226.3c-55.2,56.4-122.6,92.9-197.2,117
		c-48.3,15.5-97.8,21.2-148.1,17.9c-39-2.6-75.7-12.1-104.2-42.2c-33.9-35.6-42.1-76.6-31-123.5c11.9-49.7,43.9-82.8,84.9-109.9
		c54.1-35.8,114.6-48.6,178-50.8c24.2-0.8,48.4,2.2,72.5,5.5c-17.6,1.2-35.4,1.3-52.8,3.7C405,351.3,360,367.7,321,398.1
		c-16,12.5-29.9,27.1-39,45.5c-13.5,27.2-11.1,54.2,1.8,81c10,20.6,28.8,30.2,47.8,39.3c57.5,27.4,115.3,21.6,172.4-1
		c67-26.4,123.2-68.9,171.9-121.5c35.6-38.5,59.5-83.8,73.5-134.4c9.4-34.1,14.2-68.7,13.1-104C762.4,201.8,762.5,200.6,762.7,199.4
		z"/>
	<path fill="#FB6D29" d="M656.1,562.3c20-22.5,41.7-45.2,61.3-69.4c19.6-24.3,34-52.3,45.9-83.7c10.4,20.4,20.5,38.5,28.8,57.2
		c19.8,44.9,39.4,89.9,57.6,135.5c6.6,16.8,9.6,35.2,13.3,53.1c2.7,13.3-1.4,16.5-14.8,13.3c-29.1-7.1-51.1-25-68.3-48
		c-14.9-19.9-27-41.9-39.8-63.3c-5.9-9.9-10.6-20.4-15.5-30.8c-2.7-5.7-5.3-5-9.8-1.8c-15.5,10.9-31.1,21.3-46.9,31.8
		C663.7,558.9,659.1,560.8,656.1,562.3z"/>
	<path fill="#FB6D29" d="M593.8,443.3c-4.6-2.5-7.7-1.8-11.7,3c-26.7,31.6-57.8,57.9-94.9,76.3c-36.2,18.1-74.4,28.2-113.1,25.5
		c17.9-7.2,38.1-14.1,57.1-23.4c45.4-22.1,80.4-55.7,105.4-99.6c5.9-10.3,5.6-11.7-5.7-15.4c-35.5-11.6-71.6-17.9-109-14.2
		c-0.7,0.1-1.6-0.4-2.7-0.7c46.1-31.8,178.3-13.5,236.1,33.5c-10.5,11.7-20.8,23.5-31.7,34.9c0,0-11.4-8.1-15.4-10.8
		C604.7,450,597.4,445.2,593.8,443.3z"/>
</g>
<g>
	<path fill="#1D2242" d="M118.6,806.3l-6.7-21H79.3l-6.7,21H48.5l34.4-94.6h26.3l33.6,94.6H118.6z M95.5,730.8
		c-0.4,2.2-0.7,3.6-0.9,4.2c-0.1,0.5-3.7,11.8-10.8,33.9H107l-10.2-31.8C96.4,735.7,95.9,733.6,95.5,730.8z"/>
	<path fill="#1D2242" d="M203.3,806.3l-9.6-24.3c-1.7-4.2-3.6-7.2-5.8-9.1s-4.3-2.8-6.5-2.8h-4.1v36.2H155v-94.6h34.3
		c11.5,0,20.2,2.2,26.1,6.7c5.9,4.4,8.8,10.8,8.8,19.1c0,6.6-1.9,12.1-5.7,16.6c-3.8,4.5-9.2,7.7-16,9.5v0.3
		c5.8,1.8,10.4,6.7,13.9,14.6l12.3,28H203.3z M200.7,740c0-3.8-1.2-6.8-3.5-9.1c-2.3-2.2-5.9-3.3-10.8-3.3h-9.1v26.3h8.7
		c4.3,0,7.8-1.3,10.6-3.9C199.4,747.5,200.7,744.1,200.7,740z"/>
	<path fill="#1D2242" d="M309.8,802.8c-3.2,1.6-7.2,2.9-12.1,3.8c-4.8,0.9-10,1.4-15.5,1.4c-9.7,0-18.1-1.9-25.2-5.8
		c-7.1-3.9-12.6-9.4-16.4-16.5c-3.8-7.1-5.7-15.3-5.7-24.6c0-9.9,2.1-18.7,6.4-26.6c4.3-7.8,10.3-13.8,18.1-18s16.6-6.3,26.4-6.3
		c4.4,0,8.8,0.3,13.1,1c4.3,0.7,7.9,1.5,10.8,2.6v20.8c-7.1-4.1-14.5-6.1-22.2-6.1c-5.7,0-10.7,1.3-15.2,3.8
		c-4.4,2.5-7.9,6.1-10.3,10.8s-3.7,10.2-3.7,16.5c0,9.1,2.5,16.3,7.5,21.8c5,5.5,11.8,8.2,20.4,8.2c8.1,0,15.9-2.2,23.4-6.5V802.8z"
		/>
	<path fill="#1D2242" d="M387,806.3v-38.5h-38.1v38.5h-22.4v-94.6h22.4v37.7H387v-37.7h22.4v94.6H387z"/>
	<path fill="#1D2242" d="M491.3,806.3l-6.7-21H452l-6.7,21h-24.1l34.4-94.6H482l33.6,94.6H491.3z M468.2,730.8
		c-0.4,2.2-0.7,3.6-0.9,4.2c-0.1,0.5-3.7,11.8-10.8,33.9h23.2l-10.2-31.8C469.1,735.7,468.6,733.6,468.2,730.8z"/>
	<path fill="#1D2242" d="M591.3,806.3l-39-59.4l-4-6.3c0.3,3.2,0.5,7.8,0.5,13.7v52h-21.2v-94.6h23.9l41.4,63.5l-0.3-11.2v-52.3
		h21.2v94.6H591.3z"/>
	<path fill="#1D2242" d="M695.7,806.3l-6.7-21h-32.6l-6.7,21h-24.1l34.4-94.6h26.3l33.6,94.6H695.7z M672.6,730.8
		c-0.4,2.2-0.7,3.6-0.9,4.2s-3.7,11.8-10.8,33.9h23.2l-10.2-31.8C673.4,735.7,673,733.6,672.6,730.8z"/>
	<path fill="#1D2242" d="M732,806.3v-94.6h22.4V789h35v17.3H732z"/>
	<path fill="#1D2242" d="M886.8,758.3c0,9.7-2,18.3-5.9,25.9c-4,7.6-9.5,13.4-16.7,17.5c-7.2,4.1-15.4,6.2-24.6,6.2
		c-8.9,0-16.9-2-24-6c-7.1-4-12.6-9.7-16.5-17c-3.9-7.3-5.9-15.5-5.9-24.7c0-9.8,2-18.5,5.9-26.1c4-7.7,9.6-13.6,16.8-17.7
		s15.7-6.3,25.2-6.3c8.9,0,16.8,2,23.8,6c7,4,12.4,9.7,16.2,17C884.9,740.4,886.8,748.8,886.8,758.3z M863.4,759.5
		c0-9.8-2-17.4-6.1-22.9c-4.1-5.5-9.7-8.2-16.8-8.2c-7.3,0-13.2,2.8-17.4,8.4c-4.3,5.6-6.4,13-6.4,22.3c0,9.3,2.1,16.7,6.4,22.2
		c4.3,5.5,9.9,8.2,17,8.2c7.3,0,13-2.7,17.2-8C861.3,776.1,863.4,768.8,863.4,759.5z"/>
	<path fill="#1D2242" d="M954.5,806.3l-27.6-41.1h0.1c-0.7-0.8-1.4-2-1.9-3.5v44.6h-22.4v-94.6h22.4V755c0.7-1.7,1.4-3,2-3.9
		l26.1-39.4h26.3l-33,45.1l35.8,49.5H954.5z"/>
</g>
<g>
	<path fill="#1D2242" d="M107.8,856.7v51.1H93v-51.1H75.2v-11.5h50.4v11.5H107.8z"/>
	<path fill="#1D2242" d="M166.1,907.8l-6.3-16.1c-1.1-2.8-2.4-4.8-3.8-6c-1.4-1.2-2.9-1.9-4.3-1.9H149v23.9h-14.8v-62.5h22.7
		c7.6,0,13.4,1.5,17.3,4.4c3.9,2.9,5.8,7.1,5.8,12.6c0,4.3-1.3,8-3.8,10.9c-2.5,3-6.1,5.1-10.6,6.3v0.2c3.8,1.2,6.9,4.4,9.2,9.6
		l8.2,18.5H166.1z M164.4,864c0-2.5-0.8-4.5-2.3-6c-1.5-1.5-3.9-2.2-7.1-2.2h-6v17.4h5.8c2.8,0,5.2-0.9,7-2.6
		C163.5,868.9,164.4,866.7,164.4,864z"/>
	<path fill="#1D2242" d="M231.5,907.8l-4.4-13.9h-21.5l-4.4,13.9h-16l22.8-62.5h17.4l22.2,62.5H231.5z M216.2,857.9
		c-0.3,1.5-0.5,2.4-0.6,2.7s-2.5,7.8-7.1,22.4h15.3l-6.7-21C216.8,861.1,216.5,859.8,216.2,857.9z"/>
	<path fill="#1D2242" d="M311.7,875.7c0,6.3-1.4,11.9-4.1,16.8c-2.8,4.9-6.7,8.6-11.8,11.3c-5.1,2.6-11,3.9-17.7,3.9h-22.5v-62.5
		H278c11.1,0,19.5,2.6,25.2,7.7C308.8,858.1,311.7,865.7,311.7,875.7z M296.1,875.9c0-6-1.7-10.6-5.1-14.1
		c-3.4-3.4-8.1-5.1-14.3-5.1h-6.5v39.6h6.6c6,0,10.7-1.8,14.1-5.4C294.4,887.3,296.1,882.3,296.1,875.9z"/>
	<path fill="#1D2242" d="M322.2,907.8v-62.5H337v62.5H322.2z"/>
	<path fill="#1D2242" d="M393.4,907.8l-25.8-39.3l-2.6-4.1c0.2,2.1,0.3,5.1,0.3,9.1v34.4h-14v-62.5h15.8l27.3,42l-0.2-7.4v-34.6h14
		v62.5H393.4z"/>
	<path fill="#1D2242" d="M474.8,903.5c-2.7,1.6-6.2,2.9-10.4,3.9c-4.2,1-8.5,1.5-12.7,1.5c-10.1,0-18.2-2.8-24-8.3
		c-5.9-5.6-8.8-13.2-8.8-23c0-6.4,1.5-12.2,4.4-17.3c2.9-5.1,7-9,12.4-11.8c5.3-2.8,11.5-4.2,18.4-4.2c2.9,0,6,0.2,9.2,0.7
		s6.1,1.2,8.7,2.1v13.4c-5.1-3-11.1-4.5-18-4.5c-3.7,0-7.1,0.9-10.1,2.6c-3,1.7-5.3,4.1-6.9,7.3c-1.6,3.2-2.4,6.8-2.4,11
		c0,6.3,1.6,11.2,4.7,14.8c3.1,3.6,7.6,5.4,13.3,5.4c3.2,0,5.8-0.5,7.7-1.4v-12.3h-12.5v-11.2h27.3V903.5z"/>
	<path fill="#1D2242" d="M558.1,905.5c-2.1,1.1-4.8,1.9-8,2.5c-3.2,0.6-6.6,0.9-10.2,0.9c-6.4,0-11.9-1.3-16.7-3.8
		c-4.7-2.6-8.3-6.2-10.8-10.9c-2.5-4.7-3.7-10.1-3.7-16.3c0-6.5,1.4-12.4,4.3-17.5c2.8-5.2,6.8-9.1,12-11.9s11-4.2,17.4-4.2
		c2.9,0,5.8,0.2,8.7,0.7c2.9,0.4,5.2,1,7.1,1.7v13.8c-4.7-2.7-9.6-4.1-14.6-4.1c-3.7,0-7.1,0.8-10,2.5c-2.9,1.7-5.2,4-6.8,7.1
		c-1.6,3.1-2.4,6.7-2.4,10.9c0,6,1.7,10.8,5,14.4s7.8,5.4,13.5,5.4c5.3,0,10.5-1.4,15.4-4.3V905.5z"/>
	<path fill="#1D2242" d="M626.1,876.1c0,6.4-1.3,12.1-3.9,17.1c-2.6,5-6.3,8.9-11.1,11.6c-4.8,2.7-10.2,4.1-16.3,4.1
		c-5.9,0-11.2-1.3-15.9-4c-4.7-2.6-8.3-6.4-10.9-11.2c-2.6-4.8-3.9-10.3-3.9-16.3c0-6.5,1.3-12.2,3.9-17.3c2.6-5.1,6.3-9,11.1-11.7
		c4.8-2.8,10.3-4.1,16.7-4.1c5.9,0,11.1,1.3,15.8,4s8.2,6.4,10.7,11.2C624.9,864.3,626.1,869.8,626.1,876.1z M610.6,876.9
		c0-6.5-1.3-11.5-4-15.1c-2.7-3.6-6.4-5.4-11.1-5.4c-4.9,0-8.7,1.9-11.5,5.6c-2.8,3.7-4.3,8.6-4.3,14.7c0,6.2,1.4,11.1,4.2,14.7
		c2.8,3.6,6.6,5.4,11.2,5.4c4.8,0,8.6-1.8,11.3-5.3S610.6,883,610.6,876.9z"/>
	<path fill="#1D2242" d="M694,907.8v-37.4c0-3.4,0.1-7,0.3-11c-0.6,2.8-1,4.5-1.1,5c-0.2,0.6-5.2,15-15,43.4H666l-14.9-42.1h0
		c-0.4-1-0.9-3.1-1.6-6.3c0.3,4.9,0.4,9.5,0.4,13.8v34.6h-13.4v-62.5h21.3l12.8,37.1c0.7,1.8,1.3,4.4,2,7.9c0.7-2.8,1.4-5.4,2.3-8
		l12.8-37h20.8v62.5H694z"/>
	<path fill="#1D2242" d="M769.3,865.2c0,4.1-1,7.8-3.1,11s-5,5.7-8.9,7.4c-3.9,1.8-8.3,2.6-13.3,2.6h-6.4v21.5H723v-62.5h22.4
		c7.9,0,13.8,1.7,17.9,5C767.3,853.6,769.3,858.6,769.3,865.2z M753.8,865.7c0-3.2-1-5.6-2.9-7.2c-1.9-1.6-4.6-2.4-8-2.4h-5.2v19.5
		h5.2C750.2,875.6,753.8,872.3,753.8,865.7z"/>
	<path fill="#1D2242" d="M813,907.8l-4.4-13.9H787l-4.4,13.9h-16l22.8-62.5h17.4l22.2,62.5H813z M797.7,857.9
		c-0.3,1.5-0.5,2.4-0.6,2.7s-2.5,7.8-7.1,22.4h15.3l-6.7-21C798.3,861.1,798,859.8,797.7,857.9z"/>
	<path fill="#1D2242" d="M879.1,907.8l-25.8-39.3l-2.6-4.1c0.2,2.1,0.3,5.1,0.3,9.1v34.4h-14v-62.5h15.8l27.3,42l-0.2-7.4v-34.6h14
		v62.5H879.1z"/>
	<path fill="#1D2242" d="M935.8,885.5L935.8,885.5l0,22.2h-14.8v-22h0l-19.8-40.5H918l10.1,23.3c0.6,1.3,1,2.6,1.3,3.8
		c0.5-1.9,0.9-3.1,1.1-3.7l10.2-23.5h15.5L935.8,885.5z"/>
</g>
<g>
	<path fill="#1D2242" d="M295.8,1039.1v-62.5h36.8V988h-22v13.9H331v11.4h-20.4v14.3H334v11.4H295.8z"/>
	<path fill="#1D2242" d="M387.3,1021.5c0,3.8-1,7.1-3.1,9.9c-2.1,2.8-5.1,4.9-9.1,6.5c-4,1.5-8.9,2.3-14.9,2.3
		c-3.4,0-6.8-0.4-10.2-1.1c-3.4-0.7-6-1.6-8-2.5v-14.3c2.6,2,5.6,3.7,9,4.9c3.4,1.3,6.6,1.9,9.5,1.9c3.6,0,6.4-0.6,8.2-1.8
		c1.9-1.2,2.8-2.9,2.8-5.1c0-1.3-0.3-2.4-0.9-3.4c-0.6-0.9-1.6-1.8-2.9-2.6c-1.3-0.8-4.2-2.1-8.7-3.9c-5.6-2.2-9.9-4.8-12.9-7.9
		c-3-3.1-4.4-6.6-4.4-10.4c0-5.6,2.3-10,6.9-13.4c4.6-3.4,10.8-5.1,18.5-5.1c6.4,0,12.1,0.8,17,2.5v13.3c-2.2-1.4-4.8-2.5-7.7-3.4
		c-2.9-0.9-5.7-1.3-8.5-1.3c-3.5,0-6.1,0.5-8,1.6c-1.9,1.1-2.8,2.6-2.8,4.7c0,1.9,0.7,3.6,2.2,5.1c1.5,1.4,4.2,2.9,8.2,4.5
		c7.1,2.8,12.1,5.7,15.1,8.7C385.8,1014.2,387.3,1017.6,387.3,1021.5z"/>
	<path fill="#1D2242" d="M424.6,988v51.1h-14.8V988h-17.7v-11.5h50.4V988H424.6z"/>
	<path fill="#1D2242" d="M507.2,1007c0,6.3-1.4,11.9-4.1,16.8c-2.8,4.9-6.7,8.6-11.8,11.3c-5.1,2.6-11,3.9-17.7,3.9h-22.5v-62.5
		h22.5c11.1,0,19.5,2.6,25.2,7.7C504.4,989.4,507.2,997,507.2,1007z M491.7,1007.2c0-6-1.7-10.6-5.1-14.1c-3.4-3.4-8.1-5.1-14.3-5.1
		h-6.5v39.6h6.6c6,0,10.7-1.8,14.1-5.4C490,1018.6,491.7,1013.6,491.7,1007.2z"/>
	<path fill="#1D2242" d="M540.9,1039.1v-10.9H556v-38.9l-15.5,2.9V981l29.9-5.6v52.8h15v10.9H540.9z"/>
	<path fill="#1D2242" d="M635.1,1004.8c0,11-2.4,19.7-7.2,26c-4.8,6.3-11.6,9.4-20.3,9.4c-2.6,0-5.1-0.3-7.5-0.8
		c-2.5-0.5-4.5-1.1-6-1.8V1026c1.4,0.9,3.3,1.8,5.7,2.5c2.4,0.7,4.6,1.1,6.5,1.1c4.5,0,8.1-1.5,10.7-4.6c2.6-3.1,4-7.6,4.1-13.7
		c-1.4,1.8-3.1,3.1-5.3,4.1c-2.2,1-4.6,1.4-7.2,1.4c-3.4,0-6.5-0.8-9.3-2.5c-2.8-1.6-5-3.9-6.5-6.8c-1.5-2.9-2.3-6.2-2.3-10
		c0-4.3,0.9-8.2,2.8-11.5c1.9-3.4,4.5-6,7.9-7.8s7.3-2.7,11.7-2.7c4.6,0,8.6,1.2,12,3.6c3.4,2.4,6,5.7,7.7,10.1
		C634.2,993.5,635.1,998.7,635.1,1004.8z M620.5,997.5c0-3.4-0.8-6.1-2.3-8.3c-1.5-2.1-3.5-3.2-5.8-3.2s-4.2,1-5.6,2.9
		c-1.5,1.9-2.2,4.4-2.2,7.5c0,3.1,0.7,5.6,2.2,7.4c1.5,1.9,3.4,2.8,6,2.8c2.3,0,4.1-0.9,5.6-2.6
		C619.8,1002.3,620.5,1000.1,620.5,997.5z"/>
	<path fill="#1D2242" d="M664.6,1039.1h-15.2l22.2-51.3h-29.2v-11.2h44.2v6.2L664.6,1039.1z"/>
	<path fill="#1D2242" d="M694.9,1039.1v-10.9h15.1v-38.9l-15.5,2.9V981l29.9-5.6v52.8h15v10.9H694.9z"/>
</g>
<g>
	<g>
		<path fill="#0C0E27" d="M891.5,131.7c-25.1,0-45.4-20.3-45.4-45.4S866.4,41,891.5,41s45.4,20.3,45.4,45.4S916.5,131.7,891.5,131.7
			z M854.2,86.4c0,20.6,16.7,37.3,37.3,37.3s37.3-16.7,37.3-37.3S912,49.1,891.5,49.1S854.2,65.8,854.2,86.4z M911.9,109.9
			c0.3,0.5,0.3,1.1-0.1,1.6c-0.3,0.5-0.8,0.8-1.4,0.8h-7.7c-0.6,0-1.2-0.3-1.4-0.9L891.5,93h-7.8v17.7c0,0.9-0.7,1.6-1.6,1.6h-6.8
			c-0.9,0-1.6-0.7-1.6-1.6V62.1c0-0.9,0.7-1.6,1.6-1.6h14.9c5.3,0,7.6,0.5,9.6,1.2c5.7,2.1,9.3,7.7,9.3,14.6c0,6.2-3.1,11.5-8,13.9
			c0.2,0.3,0.3,0.5,0.5,0.8L911.9,109.9z M895.8,70.5c-1-0.6-2.4-0.9-5.9-0.9h-6.2v14.2h8.2c4.5,0,7-2.6,7-7.2
			C898.9,73.7,897.9,71.6,895.8,70.5z"/>
	</g>
</g>
</svg>
