<?xml version="1.0" encoding="utf-8"?>
<!-- Generator: Adobe Illustrator 16.0.0, SVG Export Plug-In . SVG Version: 6.00 Build 0)  -->
<!DOCTYPE svg PUBLIC "-//W3C//DTD SVG 1.1//EN" "http://www.w3.org/Graphics/SVG/1.1/DTD/svg11.dtd">
<svg version="1.1" id="Layer_1" xmlns="http://www.w3.org/2000/svg" xmlns:xlink="http://www.w3.org/1999/xlink" x="0px" y="0px"
	 width="245.1px" height="72px" viewBox="0 0 245.1 72" style="enable-background:new 0 0 245.1 72;" xml:space="preserve">
<style type="text/css">
<![CDATA[
	.st0{fill:#111327;}
	.st1{fill:#1D2242;}
	.st2{fill:#F36E2D;}
	.st3{clip-path:url(#SVGID_2_);fill:#F36E2D;}
]]>
</style>
<g>
	<g>
		<defs>
			<rect id="SVGID_1_" x="2" y="2.1" width="240.4" height="67.9"/>
		</defs>
		<clipPath id="SVGID_2_">
			<use xlink:href="#SVGID_1_"  style="overflow:visible;"/>
		</clipPath>
		<path class="st3" d="M56.3,42.7c-1.6-1.9-3.1-3.7-4.7-5.3c-3.2-3.2-7.1-5.2-11.5-6.3c-4.4-1.1-8.9-1.1-13.3-0.3
			c-5.2,1-10.4,2.2-15.2,4.7c-0.1,0-0.1,0-0.4,0c0.9-1.6,1.8-3.1,2.7-4.5C19.4,22.3,26,14.4,33.1,6.9c0.9-1,1.8-1.9,2.7-2.9
			c0.4-0.4,0.7-0.8,1.1-1.1c1.4-1.1,2.3-1.1,3.7,0.2C44.5,6.8,48,11,51,15.5c3.1,4.8,6,9.7,9,14.5c0.1,0.2,0.3,0.3,0.5,0.7
			c1.8-2.6,3.1-5.2,3.8-8.1C64.1,30.3,60.8,36.8,56.3,42.7L56.3,42.7z"/>
		<path class="st3" d="M66.8,19.3c0.6,3.6,0.9,7.2,0.5,10.9c-1.2,9.6-5.8,17.6-12.6,24.4c-6,6.1-13.3,10-21.4,12.6
			c-5.2,1.7-10.6,2.3-16.1,1.9c-4.2-0.3-8.2-1.3-11.3-4.6c-3.7-3.8-4.6-8.3-3.4-13.3c1.3-5.4,4.8-8.9,9.2-11.8
			c5.9-3.9,12.4-5.2,19.3-5.5c2.6-0.1,5.3,0.2,7.9,0.6c-1.9,0.1-3.8,0.1-5.7,0.4c-5.3,0.7-10.1,2.5-14.4,5.8
			c-1.7,1.3-3.2,2.9-4.2,4.9c-1.5,2.9-1.2,5.8,0.2,8.7c1.1,2.2,3.1,3.3,5.2,4.2c6.2,3,12.5,2.3,18.7-0.1C45.9,55.6,52,51,57.3,45.4
			c3.9-4.1,6.5-9,8-14.5c1-3.7,1.5-7.4,1.4-11.2C66.7,19.5,66.7,19.4,66.8,19.3L66.8,19.3z"/>
		<path class="st3" d="M55.2,58.4c2.2-2.4,4.5-4.9,6.7-7.5c2.1-2.6,3.7-5.6,5-9c1.1,2.2,2.2,4.1,3.1,6.2c2.1,4.8,4.3,9.7,6.2,14.6
			c0.7,1.8,1,3.8,1.4,5.7c0.3,1.4-0.2,1.8-1.6,1.4c-3.2-0.8-5.5-2.7-7.4-5.2c-1.6-2.1-2.9-4.5-4.3-6.8c-0.6-1.1-1.2-2.2-1.7-3.3
			c-0.3-0.6-0.6-0.5-1.1-0.2c-1.7,1.2-3.4,2.3-5.1,3.4C56,58,55.5,58.2,55.2,58.4L55.2,58.4z"/>
	</g>
	<path class="st2" d="M48.4,45.6c-0.5-0.3-0.8-0.2-1.3,0.3c-2.9,3.4-6.3,6.2-10.3,8.2c-3.9,2-8.1,3-12.3,2.8
		c1.9-0.8,4.1-1.5,6.2-2.5c4.9-2.4,8.7-6,11.4-10.7c0.6-1.1,0.6-1.3-0.6-1.7c-3.9-1.3-7.8-1.9-11.8-1.5c-0.1,0-0.2,0-0.3-0.1
		c5-3.4,19.4-1.5,25.6,3.6c-1.1,1.3-2.3,2.5-3.4,3.8c0,0-1.2-0.9-1.7-1.2C49.6,46.3,48.8,45.8,48.4,45.6L48.4,45.6z"/>
	<path class="st0" d="M76.1,5.4c-0.1-0.1-0.3-0.1-0.6-0.1h-0.7v1.5h0.9c0.5,0,0.8-0.3,0.8-0.8C76.4,5.7,76.3,5.5,76.1,5.4L76.1,5.4z
		 M77.9,9.6c0,0.1,0,0.1,0,0.2c0,0.1-0.1,0.1-0.1,0.1h-0.8c-0.1,0-0.1,0-0.2-0.1l-1.1-2h-0.9v1.9c0,0.1-0.1,0.2-0.2,0.2h-0.7
		c-0.1,0-0.2-0.1-0.2-0.2V4.5c0-0.1,0.1-0.2,0.2-0.2h1.6c0.6,0,0.8,0,1,0.1c0.6,0.2,1,0.8,1,1.6c0,0.7-0.3,1.2-0.9,1.5
		c0,0,0,0.1,0,0.1L77.9,9.6L77.9,9.6z M71.6,7.1c0,2.2,1.8,4,4,4s4-1.8,4-4s-1.8-4-4-4S71.6,4.9,71.6,7.1L71.6,7.1z M75.6,12
		c-2.7,0-4.9-2.2-4.9-4.9c0-2.7,2.2-4.9,4.9-4.9s4.9,2.2,4.9,4.9C80.6,9.8,78.4,12,75.6,12L75.6,12z"/>
	<path class="st1" d="M94.8,12.1c-0.1,0.4-0.1,0.6-0.1,0.7c0,0.1-0.6,2-1.8,5.6h3.9l-1.7-5.3C95,12.9,94.9,12.6,94.8,12.1L94.8,12.1
		z M98.7,24.6l-1.1-3.5h-5.4L91,24.6h-4L92.7,9h4.4l5.6,15.6H98.7L98.7,24.6z"/>
	<path class="st1" d="M112.4,13.7c0-0.6-0.2-1.1-0.6-1.5c-0.4-0.4-1-0.6-1.8-0.6h-1.5V16h1.4c0.7,0,1.3-0.2,1.8-0.6
		C112.1,14.9,112.4,14.3,112.4,13.7L112.4,13.7z M112.8,24.6l-1.6-4c-0.3-0.7-0.6-1.2-1-1.5s-0.7-0.5-1.1-0.5h-0.7v6h-3.7V9h5.7
		c1.9,0,3.4,0.4,4.3,1.1c1,0.7,1.5,1.8,1.5,3.2c0,1.1-0.3,2-1,2.7s-1.5,1.3-2.7,1.6v0c1,0.3,1.7,1.1,2.3,2.4l2.1,4.6H112.8
		L112.8,24.6z"/>
	<path class="st1" d="M130.5,24c-0.5,0.3-1.2,0.5-2,0.6c-0.8,0.1-1.7,0.2-2.6,0.2c-1.6,0-3-0.3-4.2-1c-1.2-0.6-2.1-1.5-2.7-2.7
		c-0.6-1.2-0.9-2.5-0.9-4.1c0-1.6,0.4-3.1,1.1-4.4c0.7-1.3,1.7-2.3,3-3c1.3-0.7,2.8-1,4.4-1c0.7,0,1.5,0.1,2.2,0.2
		c0.7,0.1,1.3,0.3,1.8,0.4v3.4c-1.2-0.7-2.4-1-3.7-1c-0.9,0-1.8,0.2-2.5,0.6c-0.7,0.4-1.3,1-1.7,1.8c-0.4,0.8-0.6,1.7-0.6,2.7
		c0,1.5,0.4,2.7,1.3,3.6c0.8,0.9,2,1.4,3.4,1.4c1.3,0,2.6-0.4,3.9-1.1V24L130.5,24z"/>
	<polygon class="st1" points="143.4,24.6 143.4,18.2 137,18.2 137,24.6 133.3,24.6 133.3,9 137,9 137,15.2 143.4,15.2 143.4,9 
		147.1,9 147.1,24.6 143.4,24.6 	"/>
	<path class="st1" d="M156.9,12.1c-0.1,0.4-0.1,0.6-0.1,0.7c0,0.1-0.6,2-1.8,5.6h3.9l-1.7-5.3C157,12.9,156.9,12.6,156.9,12.1
		L156.9,12.1z M160.7,24.6l-1.1-3.5h-5.4l-1.1,3.5h-4L154.8,9h4.4l5.6,15.6H160.7L160.7,24.6z"/>
	<path class="st1" d="M177.4,24.6l-6.5-9.8l-0.7-1c0.1,0.5,0.1,1.3,0.1,2.3v8.6h-3.5V9h4l6.9,10.5l-0.1-1.9V9h3.5v15.6H177.4
		L177.4,24.6z"/>
	<path class="st1" d="M190.9,12.1c-0.1,0.4-0.1,0.6-0.1,0.7c0,0.1-0.6,2-1.8,5.6h3.9l-1.7-5.3C191,12.9,191,12.6,190.9,12.1
		L190.9,12.1z M194.7,24.6l-1.1-3.5h-5.4l-1.1,3.5h-4L188.8,9h4.4l5.6,15.6H194.7L194.7,24.6z"/>
	<polygon class="st1" points="200.8,24.6 200.8,9 204.5,9 204.5,21.8 210.3,21.8 210.3,24.6 200.8,24.6 	"/>
	<path class="st1" d="M222.6,16.9c0-1.6-0.3-2.9-1-3.8c-0.7-0.9-1.6-1.4-2.8-1.4c-1.2,0-2.2,0.5-2.9,1.4c-0.7,0.9-1.1,2.2-1.1,3.7
		c0,1.5,0.4,2.8,1.1,3.7s1.7,1.4,2.8,1.4c1.2,0,2.2-0.4,2.9-1.3C222.3,19.6,222.6,18.4,222.6,16.9L222.6,16.9z M226.6,16.7
		c0,1.6-0.3,3-1,4.3s-1.6,2.2-2.8,2.9c-1.2,0.7-2.6,1-4.1,1c-1.5,0-2.8-0.3-4-1c-1.2-0.7-2.1-1.6-2.8-2.8s-1-2.6-1-4.1
		c0-1.6,0.3-3.1,1-4.3s1.6-2.2,2.8-2.9c1.2-0.7,2.6-1,4.2-1c1.5,0,2.8,0.3,4,1c1.2,0.7,2.1,1.6,2.7,2.8S226.6,15.1,226.6,16.7
		L226.6,16.7z"/>
	<path class="st1" d="M237.8,24.6l-4.6-6.8h0c-0.1-0.1-0.2-0.3-0.3-0.6v7.4h-3.7V9h3.7v7.2c0.1-0.3,0.2-0.5,0.3-0.6l4.3-6.5h4.4
		l-5.5,7.5l6,8.2H237.8L237.8,24.6z"/>
	<polygon class="st1" points="96.9,33 96.9,41.4 94.4,41.4 94.4,33 91.5,33 91.5,31.1 99.8,31.1 99.8,33 96.9,33 	"/>
	<path class="st1" d="M106.3,34.2c0-0.4-0.1-0.7-0.4-1c-0.3-0.2-0.7-0.4-1.2-0.4h-1v2.9h1c0.5,0,0.9-0.1,1.2-0.4
		C106.2,35,106.3,34.6,106.3,34.2L106.3,34.2z M106.6,41.4l-1.1-2.7c-0.2-0.5-0.4-0.8-0.6-1c-0.2-0.2-0.5-0.3-0.7-0.3h-0.5v4h-2.5
		V31.1h3.8c1.3,0,2.2,0.2,2.9,0.7c0.6,0.5,1,1.2,1,2.1c0,0.7-0.2,1.3-0.6,1.8c-0.4,0.5-1,0.8-1.8,1v0c0.6,0.2,1.1,0.7,1.5,1.6
		l1.4,3.1H106.6L106.6,41.4z"/>
	<path class="st1" d="M114.9,33.2c0,0.2-0.1,0.4-0.1,0.5c0,0.1-0.4,1.3-1.2,3.7h2.5l-1.1-3.5C115,33.7,115,33.5,114.9,33.2
		L114.9,33.2z M117.5,41.4l-0.7-2.3h-3.6l-0.7,2.3h-2.7l3.8-10.3h2.9l3.7,10.3H117.5L117.5,41.4z"/>
	<path class="st1" d="M128.2,36.1c0-1-0.3-1.8-0.8-2.3S126,33,125,33h-1.1v6.6h1.1c1,0,1.8-0.3,2.3-0.9
		C127.9,38,128.2,37.2,128.2,36.1L128.2,36.1z M130.8,36.1c0,1-0.2,2-0.7,2.8c-0.5,0.8-1.1,1.4-2,1.9c-0.8,0.4-1.8,0.7-2.9,0.7h-3.7
		V31.1h3.7c1.9,0,3.2,0.4,4.2,1.3C130.3,33.2,130.8,34.4,130.8,36.1L130.8,36.1z"/>
	<polygon class="st1" points="132.6,41.4 132.6,31.1 135,31.1 135,41.4 132.6,41.4 	"/>
	<path class="st1" d="M144.4,41.4l-4.3-6.5l-0.4-0.7c0,0.4,0.1,0.9,0.1,1.5v5.7h-2.3V31.1h2.6l4.5,6.9l0-1.2v-5.7h2.3v10.3H144.4
		L144.4,41.4z"/>
	<path class="st1" d="M158,40.7c-0.5,0.3-1,0.5-1.7,0.6c-0.7,0.2-1.4,0.2-2.1,0.2c-1.7,0-3-0.5-4-1.4s-1.5-2.2-1.5-3.8
		c0-1.1,0.2-2,0.7-2.9c0.5-0.8,1.2-1.5,2.1-2c0.9-0.5,1.9-0.7,3.1-0.7c0.5,0,1,0,1.5,0.1c0.5,0.1,1,0.2,1.4,0.3v2.2
		c-0.8-0.5-1.8-0.7-3-0.7c-0.6,0-1.2,0.1-1.7,0.4c-0.5,0.3-0.9,0.7-1.2,1.2c-0.3,0.5-0.4,1.1-0.4,1.8c0,1,0.3,1.9,0.8,2.5
		c0.5,0.6,1.3,0.9,2.2,0.9c0.5,0,1-0.1,1.3-0.2v-2h-2.1v-1.9h4.5V40.7L158,40.7z"/>
	<path class="st1" d="M171.8,41c-0.4,0.2-0.8,0.3-1.3,0.4c-0.5,0.1-1.1,0.1-1.7,0.1c-1.1,0-2-0.2-2.8-0.6c-0.8-0.4-1.4-1-1.8-1.8
		c-0.4-0.8-0.6-1.7-0.6-2.7c0-1.1,0.2-2,0.7-2.9s1.1-1.5,2-2c0.9-0.5,1.8-0.7,2.9-0.7c0.5,0,1,0,1.4,0.1c0.5,0.1,0.9,0.2,1.2,0.3
		v2.3c-0.8-0.4-1.6-0.7-2.4-0.7c-0.6,0-1.2,0.1-1.7,0.4s-0.9,0.7-1.1,1.2c-0.3,0.5-0.4,1.1-0.4,1.8c0,1,0.3,1.8,0.8,2.4
		c0.6,0.6,1.3,0.9,2.2,0.9c0.9,0,1.7-0.2,2.6-0.7V41L171.8,41z"/>
	<path class="st1" d="M180.6,36.3c0-1.1-0.2-1.9-0.7-2.5c-0.4-0.6-1.1-0.9-1.8-0.9c-0.8,0-1.4,0.3-1.9,0.9c-0.5,0.6-0.7,1.4-0.7,2.4
		c0,1,0.2,1.8,0.7,2.4c0.5,0.6,1.1,0.9,1.9,0.9c0.8,0,1.4-0.3,1.9-0.9C180.3,38.1,180.6,37.3,180.6,36.3L180.6,36.3z M183.2,36.2
		c0,1.1-0.2,2-0.7,2.8c-0.4,0.8-1,1.5-1.8,1.9c-0.8,0.5-1.7,0.7-2.7,0.7c-1,0-1.9-0.2-2.6-0.7s-1.4-1.1-1.8-1.9
		c-0.4-0.8-0.6-1.7-0.6-2.7c0-1.1,0.2-2,0.7-2.9c0.4-0.8,1.1-1.5,1.8-1.9c0.8-0.5,1.7-0.7,2.8-0.7c1,0,1.9,0.2,2.6,0.7
		c0.8,0.4,1.4,1.1,1.8,1.9C182.9,34.2,183.2,35.1,183.2,36.2L183.2,36.2z"/>
	<path class="st1" d="M194.5,41.4v-6.2c0-0.6,0-1.2,0.1-1.8c-0.1,0.5-0.2,0.7-0.2,0.8c0,0.1-0.9,2.5-2.5,7.2h-2l-2.5-7h0
		c-0.1-0.2-0.2-0.5-0.3-1c0,0.8,0.1,1.6,0.1,2.3v5.7h-2.2V31.1h3.5l2.1,6.1c0.1,0.3,0.2,0.7,0.3,1.3c0.1-0.5,0.2-0.9,0.4-1.3
		l2.1-6.1h3.5v10.3H194.5L194.5,41.4z"/>
	<path class="st1" d="M204.4,34.4c0-0.5-0.2-0.9-0.5-1.2c-0.3-0.3-0.8-0.4-1.3-0.4h-0.9v3.2h0.9C203.8,36.1,204.4,35.5,204.4,34.4
		L204.4,34.4z M207,34.4c0,0.7-0.2,1.3-0.5,1.8c-0.3,0.5-0.8,0.9-1.5,1.2c-0.6,0.3-1.4,0.4-2.2,0.4h-1.1v3.6h-2.5V31.1h3.7
		c1.3,0,2.3,0.3,3,0.8C206.7,32.4,207,33.3,207,34.4L207,34.4z"/>
	<path class="st1" d="M211.7,33.2c0,0.2-0.1,0.4-0.1,0.5c0,0.1-0.4,1.3-1.2,3.7h2.5l-1.1-3.5C211.8,33.7,211.8,33.5,211.7,33.2
		L211.7,33.2z M214.3,41.4l-0.7-2.3h-3.6l-0.7,2.3h-2.7l3.8-10.3h2.9l3.7,10.3H214.3L214.3,41.4z"/>
	<path class="st1" d="M225.3,41.4l-4.3-6.5l-0.4-0.7c0,0.4,0.1,0.9,0.1,1.5v5.7h-2.3V31.1h2.6l4.5,6.9l0-1.2v-5.7h2.3v10.3H225.3
		L225.3,41.4z"/>
	<path class="st1" d="M234.7,37.7L234.7,37.7l0,3.7h-2.5v-3.6h0l-3.3-6.7h2.8l1.7,3.9c0.1,0.2,0.2,0.4,0.2,0.6
		c0.1-0.3,0.1-0.5,0.2-0.6l1.7-3.9h2.6L234.7,37.7L234.7,37.7z"/>
	<polygon class="st1" points="128.2,63.1 128.2,52.8 134.3,52.8 134.3,54.7 130.6,54.7 130.6,57 134,57 134,58.9 130.6,58.9 
		130.6,61.2 134.5,61.2 134.5,63.1 128.2,63.1 	"/>
	<path class="st1" d="M143.4,60.2c0,0.6-0.2,1.2-0.5,1.6c-0.3,0.5-0.8,0.8-1.5,1.1c-0.7,0.3-1.5,0.4-2.5,0.4c-0.6,0-1.1-0.1-1.7-0.2
		s-1-0.3-1.3-0.4v-2.4c0.4,0.3,0.9,0.6,1.5,0.8c0.6,0.2,1.1,0.3,1.6,0.3c0.6,0,1.1-0.1,1.4-0.3s0.5-0.5,0.5-0.8
		c0-0.2-0.1-0.4-0.2-0.6c-0.1-0.2-0.3-0.3-0.5-0.4c-0.2-0.1-0.7-0.3-1.4-0.6c-0.9-0.4-1.7-0.8-2.1-1.3c-0.5-0.5-0.7-1.1-0.7-1.7
		c0-0.9,0.4-1.7,1.1-2.2c0.8-0.6,1.8-0.8,3.1-0.8c1.1,0,2,0.1,2.8,0.4v2.2c-0.4-0.2-0.8-0.4-1.3-0.6c-0.5-0.1-1-0.2-1.4-0.2
		c-0.6,0-1,0.1-1.3,0.3c-0.3,0.2-0.5,0.4-0.5,0.8c0,0.3,0.1,0.6,0.4,0.8c0.2,0.2,0.7,0.5,1.4,0.7c1.2,0.5,2,0.9,2.5,1.4
		S143.4,59.6,143.4,60.2L143.4,60.2z"/>
	<polygon class="st1" points="149.6,54.7 149.6,63.1 147.2,63.1 147.2,54.7 144.2,54.7 144.2,52.8 152.6,52.8 152.6,54.7 
		149.6,54.7 	"/>
	<path class="st1" d="M160.8,57.8c0-1-0.3-1.8-0.8-2.3c-0.6-0.6-1.4-0.8-2.4-0.8h-1.1v6.6h1.1c1,0,1.8-0.3,2.3-0.9
		C160.5,59.7,160.8,58.9,160.8,57.8L160.8,57.8z M163.4,57.8c0,1-0.2,2-0.7,2.8s-1.1,1.4-2,1.9c-0.8,0.4-1.8,0.7-2.9,0.7H154V52.8
		h3.7c1.9,0,3.2,0.4,4.2,1.3C162.9,54.9,163.4,56.2,163.4,57.8L163.4,57.8z"/>
	<polygon class="st1" points="169,63.1 169,61.3 171.5,61.3 171.5,54.9 168.9,55.4 168.9,53.5 173.9,52.6 173.9,61.3 176.4,61.3 
		176.4,63.1 169,63.1 	"/>
	<path class="st1" d="M182.2,56.2c0-0.6-0.1-1-0.4-1.4c-0.3-0.4-0.6-0.5-1-0.5c-0.4,0-0.7,0.2-0.9,0.5s-0.4,0.7-0.4,1.2
		c0,0.5,0.1,0.9,0.4,1.2c0.2,0.3,0.6,0.5,1,0.5c0.4,0,0.7-0.1,0.9-0.4S182.2,56.7,182.2,56.2L182.2,56.2z M184.7,57.4
		c0,1.8-0.4,3.3-1.2,4.3c-0.8,1-1.9,1.6-3.4,1.6c-0.4,0-0.8,0-1.3-0.1c-0.4-0.1-0.7-0.2-1-0.3V61c0.2,0.2,0.5,0.3,1,0.4
		c0.4,0.1,0.8,0.2,1.1,0.2c0.8,0,1.3-0.3,1.8-0.8s0.7-1.3,0.7-2.3c-0.2,0.3-0.5,0.5-0.9,0.7c-0.4,0.2-0.8,0.2-1.2,0.2
		c-0.6,0-1.1-0.1-1.5-0.4c-0.5-0.3-0.8-0.6-1.1-1.1c-0.3-0.5-0.4-1-0.4-1.6c0-0.7,0.2-1.4,0.5-1.9c0.3-0.6,0.8-1,1.3-1.3
		c0.6-0.3,1.2-0.5,1.9-0.5c0.8,0,1.4,0.2,2,0.6c0.6,0.4,1,1,1.3,1.7C184.5,55.6,184.7,56.4,184.7,57.4L184.7,57.4z"/>
	<polygon class="st1" points="189.6,63.1 187,63.1 190.7,54.6 185.9,54.6 185.9,52.8 193.2,52.8 193.2,53.8 189.6,63.1 	"/>
	<polygon class="st1" points="194.6,63.1 194.6,61.3 197.1,61.3 197.1,54.9 194.6,55.4 194.6,53.5 199.5,52.6 199.5,61.3 202,61.3 
		202,63.1 194.6,63.1 	"/>
</g>
</svg>
